/* XPM */
static char * collectable_xpm[] = {
"64 64 187 2",
"  	c #689F38",
". 	c #53802B",
"+ 	c #000000",
"@ 	c #F9FBE7",
"# 	c #669C37",
"$ 	c #314F17",
"% 	c #46553D",
"& 	c #585858",
"* 	c #555555",
"= 	c #5D5D5D",
"- 	c #FDD835",
"; 	c #59892F",
"> 	c #3D6620",
", 	c #4A7326",
"' 	c #424242",
") 	c #4A4A4A",
"! 	c #575757",
"~ 	c #666666",
"{ 	c #4C4C4C",
"] 	c #5F5F5F",
"^ 	c #4C7527",
"/ 	c #558B2F",
"( 	c #5F9233",
"_ 	c #2E3C27",
": 	c #303030",
"< 	c #656565",
"[ 	c #696969",
"} 	c #3E3E3E",
"| 	c #4F4F4F",
"1 	c #476530",
"2 	c #33531C",
"3 	c #2E4A16",
"4 	c #515151",
"5 	c #2E2E2E",
"6 	c #525252",
"7 	c #434343",
"8 	c #5E5E5E",
"9 	c #95BC74",
"0 	c #5E9032",
"a 	c #2A4814",
"b 	c #202020",
"c 	c #5A3E22",
"d 	c #8D6137",
"e 	c #793B0F",
"f 	c #824F26",
"g 	c #8B5F35",
"h 	c #4C2306",
"i 	c #3F3F3F",
"j 	c #5B5B5B",
"k 	c #35541A",
"l 	c #5B8C30",
"m 	c #4C6F32",
"n 	c #474747",
"o 	c #4D4D4D",
"p 	c #626262",
"q 	c #5C3624",
"r 	c #5F2D0A",
"s 	c #7E502A",
"t 	c #A16F40",
"u 	c #8B4513",
"v 	c #955B2D",
"w 	c #9F6D3E",
"x 	c #72380E",
"y 	c #673D1C",
"z 	c #6B4E35",
"A 	c #487025",
"B 	c #353535",
"C 	c #404040",
"D 	c #595450",
"E 	c #4C331B",
"F 	c #411D04",
"G 	c #813F11",
"H 	c #955A2C",
"I 	c #96693C",
"J 	c #230C01",
"K 	c #454545",
"L 	c #3A611E",
"M 	c #604224",
"N 	c #A27142",
"O 	c #9F6C3D",
"P 	c #512607",
"Q 	c #314E17",
"R 	c #4D4E4D",
"S 	c #6C340E",
"T 	c #935729",
"U 	c #020401",
"V 	c #304D17",
"W 	c #4E4E4E",
"X 	c #2F2F2F",
"Y 	c #6C340C",
"Z 	c #393939",
"` 	c #414141",
" .	c #3B3B3B",
"..	c #5A3625",
"+.	c #7A3C0F",
"@.	c #80481F",
"#.	c #684D35",
"$.	c #616161",
"%.	c #3C502F",
"&.	c #7D3E10",
"*.	c #965C2E",
"=.	c #93683C",
"-.	c #545454",
";.	c #050100",
">.	c #894413",
",.	c #9E6C3D",
"'.	c #110E0D",
").	c #5C5C5C",
"!.	c #595959",
"~.	c #7F3E10",
"{.	c #7E3E10",
"].	c #885329",
"^.	c #906237",
"/.	c #040100",
"(.	c #1B0901",
"_.	c #1B1B1B",
":.	c #1F1F1F",
"<.	c #1A1A1A",
"[.	c #949494",
"}.	c #8A8A8A",
"|.	c #535353",
"1.	c #B0B0B0",
"2.	c #080808",
"3.	c #484848",
"4.	c #636363",
"5.	c #363636",
"6.	c #777777",
"7.	c #040404",
"8.	c #5D2C09",
"9.	c #5A2B09",
"0.	c #623A1B",
"a.	c #684525",
"b.	c #020000",
"c.	c #3E5F21",
"d.	c #864212",
"e.	c #8A5126",
"f.	c #986A3D",
"g.	c #824011",
"h.	c #884312",
"i.	c #5C2C09",
"j.	c #6E350D",
"k.	c #854212",
"l.	c #6B340C",
"m.	c #74380E",
"n.	c #874312",
"o.	c #72370E",
"p.	c #693F1D",
"q.	c #805932",
"r.	c #5F2D09",
"s.	c #401C04",
"t.	c #622F0A",
"u.	c #624123",
"v.	c #9B6C3E",
"w.	c #482105",
"x.	c #71370D",
"y.	c #74390E",
"z.	c #8E5226",
"A.	c #94673B",
"B.	c #894412",
"C.	c #292929",
"D.	c #282828",
"E.	c #464646",
"F.	c #643C1C",
"G.	c #6A4726",
"H.	c #020100",
"I.	c #565656",
"J.	c #505050",
"K.	c #686868",
"L.	c #030303",
"M.	c #9A9A9A",
"N.	c #909090",
"O.	c #B7B7B7",
"P.	c #090909",
"Q.	c #875229",
"R.	c #8F6136",
"S.	c #3D3D3D",
"T.	c #2D2D2D",
"U.	c #7C3D10",
"V.	c #834D24",
"W.	c #90653A",
"X.	c #844F26",
"Y.	c #8F6338",
"Z.	c #855027",
"`.	c #8E6136",
" +	c #8D6035",
".+	c #855128",
"++	c #8D5F35",
"                                                      . + + + + + + + + .                                                       ",
"    @                                         # $ $ $ % & + * = = * + & % $ $ $ #                                               ",
"  @ - @                                   ; > , + ' ) ! ~ ) { ] ] { ) ~ ! ) ' + , ^ ;                             /             ",
"    @                               /   ( _ : : : ! < [ [ [ } | | } [ [ [ < ! : : : 1 (                           2             ",
"                        /             / 3 4 [ [ [ 5 6 [ [ [ [ 7 7 [ [ [ [ 6 5 [ [ [ 4 3                         /               ",
"                      /               + 8 [ [ [ [ [ 7 + + + + + + + + + + 7 [ [ [ [ [ 8 +               9       2               ",
"                                  0 a + 8 [ [ [ [ 7 b c d e e e f g e e h b 7 [ [ [ & i j k 0             9           9         ",
"                                l m n n o ] p | | q r s t u u u v w u u x y z | | | { | [ n m l           9     9   9           ",
"                                A B [ [ C | D E F G u H t u u u v w u u u v I F F J K [ [ [ B L               9                 ",
"  /                             A B [ [ [ K M N u u u H t u u u v w u u u v O u u P K [ [ [ B L               9                 ",
"/     /                       Q R [ [ [ : S T N u u u H t u u u v w u u u v O u u u S : [ [ B U Q                         /     ",
"/     2                       V W [ [ [ X Y T N u u u H t u u u v w u u u v O u u u Y X [ Z 6 ` V                         2     ",
"2   /       9 9               V  .& [ 4 ..+.T N u u u H t u u u v w u u u v O u u u @.#.4 K $.W V                           /   ",
"2   2     9                 0 %.X i 8 + &.u T N u u u H t u u u v w u u u v O u u u *.=.+ [ [ -.%.0                         2   ",
"                            + 8 [ j + + &.u T N u u u H t u u u v w u u u v O u u u *.=.+ [ [ [ 8 +     /                       ",
"      9 9       9 9         + 8 [ j ;.>.u u T N u u u H t u u u v w u u u v O u u u *.,.>.'.).[ 8 +       /                     ",
"    9         9             + 8 [ j ;.u u u T N u u u H t u u u v w u u u v O u u u *.O u ;.j [ 8 +                             ",
"                            + 8 [ j ;.u u u T N u u u H t u u u v w u u u v O u u u *.O u ;.j [ 8 +                             ",
"                            + -.] 6 ;.u u u T N u u u H t u u u v w u u u v O u u u *.O u ;.6 ] -.+                   @         ",
"                            + + + + ;.u u u T N u u u H t u u u v w u u u v O u u u *.O u ;.+ + + +                 @ - @       ",
"                            + j ~ !.;.u u u T N u u u H t u u u v w u u u v O u u u *.O u ;.!.~ j +                   @         ",
"                        /   + 8 [ j ;.u u u T N u u u H t u u u v w u u u v O u u u *.O u ;.j [ 8 +                             ",
"                          / + 8 [ j ;.u u u T N u u u H t u u u v w u u u v O u u u *.O u ;.j [ 8 +                             ",
"        /   /               + 8 [ j ;.u u u T N u u u H t u u u v w u u u v O u ~.{.].^.{./.j [ 8 +                             ",
"          /                 + 8 [ j ;.u u u T N u u u H t u u u v w u u u v O u (.+ + + + + j [ 8 +                             ",
"                            + _.:.<.;.u u u T N u u u H t u u u v w u u u v O u (.[.}.|.1.2.<.:._.+                             ",
"                            + ) |.3.;.u u u T N u u u H t u u u v w u u u v O u (.4.).5.6.7.3.|.) +                   /         ",
"                            + 8 [ j ;.u u u T N u u u H t u u u v w u u u v O u 8.9.0.a.9.b.j [ 8 +                     /       ",
"    / /                     + 8 [ j ;.u u u T N u u u H t u u u v w u u u v O u u u *.O u ;.j [ 8 +   9                         ",
"        / /                 + 8 [ j ;.u u u T N u u u H t u u u v w u u u v O u u u *.O u ;.j [ 8 +     9     9                 ",
"/ / /     /                 + 8 [ j ;.u u u T N u u u H t u u u v w u u u v O u u u *.O u ;.j [ 8 +         9                   ",
"    / /   c./     /   9 9   +  .7 Z ;.u u u T N u u u H t u u u v w u u u v O u u u *.O u ;.Z 7  .+               9             ",
"      2 /   2   / / 9       +  .7 Z ;.u u u T N u u u H t u u u v w u u u v O u u u *.O u ;.Z 7  .+     9       9               ",
"      2 /     / 2           + 8 [ j ;.u u d.e.f.g.g.h.H t u u u v w u u u v O u u u *.O u ;.j [ 8 +       9                     ",
"            / 2       / /   + 8 [ j ;.u u i.+ + + + j.H t u u u v w u u u v O u u u *.O u ;.j [ 8 +       9                     ",
"          9   9         / / + 8 [ j ;.u u k.l.+ + m.n.H t u u u v w u u u v O u u u *.O u ;.j [ 8 +                             ",
"  / /       9     /     2 / + 8 [ j ;.u u o.p.q.j.r.+.H t u u u v w u u u v O u u u *.O u ;.j [ 8 +                 /           ",
"    / /             /   2 / + ) |.3.;.u u i.M N u s.j.H t u u u v w u u u v O u u u *.O u ;.3.|.) +                   /         ",
"    2 /     /       2 /   2 + _.:.<.;.u u t.u.v.k.w.x.H t u u u v w u u u v O u u u *.O u ;.<.:._.+ /                         / ",
"/   2 /   / /       2 /     + 8 [ j ;.u u u y.+ + {.u H t u u u v w u u u v O u u u *.O u ;.j [ 8 +                             ",
"2 /   2   / 2               + 8 [ j ;.u u u z.A.{.B.u H t u u u v w u u u v O u u u *.O u ;.j [ 8 +                             ",
"2 /     / 2     9   9       + 8 [ j ;.u u u T N u u u H t u u u v w u u u v O u u u *.O u ;.j [ 8 +                   /         ",
"        2         9         + 8 [ j ;.u u u T N u u u H t u u u v w u u u v O u u u *.O u ;.j [ 8 +                     /       ",
"                            + j ~ !.;.u u u T N u u u H t u u u v w u u u v O u u u *.O u ;.!.~ j +                             ",
"                            + + + + ;.u u u T N u u u H t u u u v w u u u v O u u u *.O u ;.+ + + +       /   /                 ",
"                            + -.] 6 ;.u u u T N u u u H t u u u v w u u u v O u u u *.O u ;.6 ] -.+         /                   ",
"                            + 8 [ j ;.u u u T N u u u H t u u u v w u u u v O u u u *.O u ;.j [ 8 +                             ",
"      /                     + 8 [ j ;.u u u T N u u u H t u u u v w u u u v O u u u *.O u ;.j [ 8 +                             ",
"      2                     + 8 [ j ;.u u u T N u u u H t u u u v w u u u v O u u u *.O u ;.j [ 8 +                             ",
"        /             @     + 8 [ j ;.u u u T N u u u H t u u u v w u u u v O u u u *.O u ;.j [ 8 +                             ",
"        2           @ - @   + C.X D.;.u u u T N u u u H t u u u v w u u u v O u u u *.O u ;.D.X C.+     /       / /             ",
"                      @     + 3.4 E.;.u u u T N u u u H t u u u v w u u u v O u r 8.F.G.8.H.E.4 3.+     / /   / / /             ",
"                            + 8 [ j ;.u u u T N u u u H t u u u v w u u u v O u (.I.J.5 K.L.j [ 8 +       /   / /               ",
"          9       9 9     @ + 8 [ j ;.u u u T N u u u H t u u u v w u u u v O u (.M.N.! O.P.j [ 8 + @     /   /                 ",
"            9   9           + 8 [ j ;.u u u T N u u u H t u u u v w u u u v O u (.+ + + + + j [ 8 +                             ",
"              9 9   9 9     + 8 [ j ;.u u u T N u u u H t u u u v w u u u v O u {.&.Q.R.&./.j [ 8 +                             ",
"                  9         + i n S.;.u u u T N u u u H t u u u v w u u u v O u u u *.O u ;.S.n i +                             ",
"  / /                       + X B T.;.u u u T N u u u H t u u u v w u u u v O u u u *.O u ;.T.B X +               / /           ",
"/ /                         + 8 [ j ;.u u u T N u u u H t u u u v w u u u v O u u u *.O u ;.j [ 8 +                 / /       / ",
"/ /                         + 8 [ j ;.u u u T N u u u H t u u u v w u u u v O u u u *.O u ;.j [ 8 +             /     / 2     / ",
"2                   /       + 8 [ j ;.u u u T N u u u H t u u u v w u u u v O u u u *.O u ;.j [ 8 +           /   2   2     2 2 ",
"    / /               /     + 8 [ j ;.u u u T N u u u H t u u u v w u u u v O u u u *.O u ;.j [ 8 +                 2     2     ",
"2 /                         + |.= 4 /.U.U.U.V.W.U.U.U.X.Y.U.U.U.Z.`.U.U.U.Z. +U.U.U..+++U./.4 = |.+                     /     2 ",
"                            + + + + + + + + + + + + + + + + + + + + + + + + + + + + + + + + + + + +                             "};
