/* XPM */
static char * exit_front_xpm[] = {
"64 64 718 2",
"  	c #689F38",
". 	c #F9FBE7",
"+ 	c #558B2F",
"@ 	c #FDD835",
"# 	c #33531C",
"$ 	c #95BC74",
"% 	c #689C37",
"& 	c #AC8846",
"* 	c #C08126",
"= 	c #BF8D30",
"- 	c #C08D30",
"; 	c #C08E30",
"> 	c #C08F30",
", 	c #BE802B",
"' 	c #C67D2C",
") 	c #AD9042",
"! 	c #679C37",
"~ 	c #7A9437",
"{ 	c #96892F",
"] 	c #9A7F2A",
"^ 	c #E18D30",
"/ 	c #F5900C",
"( 	c #FA8F13",
"_ 	c #F98F13",
": 	c #F88E13",
"< 	c #F88F13",
"[ 	c #F79316",
"} 	c #F79018",
"| 	c #E88A27",
"1 	c #987E26",
"2 	c #8D8634",
"3 	c #6E8933",
"4 	c #669634",
"5 	c #B18330",
"6 	c #EE8D22",
"7 	c #E78E1F",
"8 	c #F5A420",
"9 	c #FCA712",
"0 	c #FCA719",
"a 	c #FCA718",
"b 	c #FBA617",
"c 	c #FBA516",
"d 	c #FAA516",
"e 	c #F7A717",
"f 	c #FBA91B",
"g 	c #FDA21E",
"h 	c #E78C16",
"i 	c #DE8B27",
"j 	c #AB802C",
"k 	c #53852D",
"l 	c #3E5F21",
"m 	c #D28934",
"n 	c #F29525",
"o 	c #FEA41B",
"p 	c #F8A80F",
"q 	c #F6A814",
"r 	c #FCA71C",
"s 	c #FBA71A",
"t 	c #FBA81B",
"u 	c #FBA81C",
"v 	c #F9A81C",
"w 	c #F8A81C",
"x 	c #F7A415",
"y 	c #FBA81A",
"z 	c #FCA51E",
"A 	c #F29316",
"B 	c #D48A45",
"C 	c #9A8130",
"D 	c #B6791A",
"E 	c #B17923",
"F 	c #F19D16",
"G 	c #FA9F1C",
"H 	c #FBA61C",
"I 	c #F6A612",
"J 	c #E3890C",
"K 	c #E68117",
"L 	c #E68214",
"M 	c #E78315",
"N 	c #E88416",
"O 	c #E97F16",
"P 	c #E98315",
"Q 	c #E58A12",
"R 	c #FCA521",
"S 	c #FEA61A",
"T 	c #F9A013",
"U 	c #ED9723",
"V 	c #B3741E",
"W 	c #B3751C",
"X 	c #8E9138",
"Y 	c #699D38",
"Z 	c #788E32",
"` 	c #D58723",
" .	c #F68D0C",
"..	c #EB8D1A",
"+.	c #F8A819",
"@.	c #F6A81E",
"#.	c #F6A522",
"$.	c #F79C21",
"%.	c #DE7107",
"&.	c #DC6705",
"*.	c #DC6703",
"=.	c #DC6604",
"-.	c #E16604",
";.	c #E06705",
">.	c #DC6E09",
",.	c #F99A29",
"'.	c #FBA524",
").	c #F8A71B",
"!.	c #FCA41B",
"~.	c #F48B15",
"{.	c #F38D1B",
"].	c #C38929",
"^.	c #5D551B",
"/.	c #6A9C38",
"(.	c #7B9938",
"_.	c #E88A33",
":.	c #F7A322",
"<.	c #FBA71F",
"[.	c #FFA619",
"}.	c #FDA61A",
"|.	c #FCAA19",
"1.	c #F49D1B",
"2.	c #D36700",
"3.	c #F68315",
"4.	c #F98712",
"5.	c #F98713",
"6.	c #F98613",
"7.	c #F88612",
"8.	c #F88511",
"9.	c #F88611",
"0.	c #F9870E",
"a.	c #F78510",
"b.	c #F78316",
"c.	c #CF6100",
"d.	c #F69B20",
"e.	c #FAA61E",
"f.	c #F6A71D",
"g.	c #FCA917",
"h.	c #FAA61F",
"i.	c #FD9C1F",
"j.	c #DD8C34",
"k.	c #769939",
"l.	c #6F8931",
"m.	c #E68827",
"n.	c #FD9D1A",
"o.	c #FBA719",
"p.	c #F9A723",
"q.	c #F8A71D",
"r.	c #E78C14",
"s.	c #E0730A",
"t.	c #F17C14",
"u.	c #F6830E",
"v.	c #F48709",
"w.	c #F3890C",
"x.	c #F6860C",
"y.	c #FA860F",
"z.	c #FB8710",
"A.	c #FA8810",
"B.	c #F7860A",
"C.	c #FA9415",
"D.	c #FB991A",
"E.	c #EE840D",
"F.	c #E27205",
"G.	c #EB841A",
"H.	c #FAAA21",
"I.	c #F7A915",
"J.	c #F3AB1B",
"K.	c #FF9D0C",
"L.	c #E38929",
"M.	c #779938",
"N.	c #7B9437",
"O.	c #A4812B",
"P.	c #F7941C",
"Q.	c #FCA012",
"R.	c #F7A913",
"S.	c #F7A51C",
"T.	c #EE941C",
"U.	c #E47E0B",
"V.	c #E77508",
"W.	c #FA8413",
"X.	c #F8850F",
"Y.	c #F6870C",
"Z.	c #F5870C",
"`.	c #F8860C",
" +	c #F9850D",
".+	c #F9860D",
"++	c #F8870E",
"@+	c #F99312",
"#+	c #FA9E16",
"$+	c #FDA31C",
"%+	c #F38F11",
"&+	c #E07509",
"*+	c #E57E12",
"=+	c #EC9119",
"-+	c #FFA414",
";+	c #F9A918",
">+	c #FBA112",
",+	c #EF9524",
"'+	c #A28D2D",
")+	c #759638",
"!+	c #6E9936",
"~+	c #AF8B2B",
"{+	c #EE8C18",
"]+	c #FEA519",
"^+	c #F8A616",
"/+	c #F9A71C",
"(+	c #FB9F1D",
"_+	c #D66903",
":+	c #EA790C",
"<+	c #FA840C",
"[+	c #FD880C",
"}+	c #F8860E",
"|+	c #F88711",
"1+	c #F8850C",
"2+	c #F9850C",
"3+	c #F7850B",
"4+	c #F5870A",
"5+	c #F38B0C",
"6+	c #FDA41A",
"7+	c #FAA918",
"8+	c #F8A818",
"9+	c #FEA61E",
"0+	c #F39012",
"a+	c #E0810F",
"b+	c #D47311",
"c+	c #FC9F1A",
"d+	c #FBA618",
"e+	c #F9A920",
"f+	c #FDA41E",
"g+	c #EB9313",
"h+	c #A48B2B",
"i+	c #709939",
"j+	c #CB8836",
"k+	c #F59821",
"l+	c #FCA615",
"m+	c #F7A718",
"n+	c #F8A723",
"o+	c #EF9024",
"p+	c #D36301",
"q+	c #F78219",
"r+	c #F98312",
"s+	c #FB860A",
"t+	c #F98608",
"u+	c #F8860D",
"v+	c #F8850B",
"w+	c #F7890C",
"x+	c #F79111",
"y+	c #FEA11C",
"z+	c #FAA719",
"A+	c #F6AA17",
"B+	c #F6AA16",
"C+	c #FEA619",
"D+	c #FEA41E",
"E+	c #FBAE2E",
"F+	c #FEBD4F",
"G+	c #C46E01",
"H+	c #EE9319",
"I+	c #FDA314",
"J+	c #F9991E",
"K+	c #CB7E40",
"L+	c #D78016",
"M+	c #FB9616",
"N+	c #F9AA14",
"O+	c #F8A51C",
"P+	c #E2820C",
"Q+	c #E67612",
"R+	c #ED7A0E",
"S+	c #F78410",
"T+	c #F7840F",
"U+	c #F8850D",
"V+	c #F8850E",
"W+	c #F7840D",
"X+	c #F6860B",
"Y+	c #FB9515",
"Z+	c #FA9E18",
"`+	c #FAA81C",
" @	c #F9A719",
".@	c #F7AA18",
"+@	c #F8AA16",
"@@	c #FEA819",
"#@	c #FBA71E",
"$@	c #F9B52C",
"%@	c #FCCB51",
"&@	c #F6CC71",
"*@	c #E58E30",
"=@	c #E5840F",
"-@	c #F9A61D",
";@	c #FAA517",
">@	c #FD960E",
",@	c #D68029",
"'@	c #DA801F",
")@	c #F9931B",
"!@	c #FBA715",
"~@	c #FFA41D",
"{@	c #DE7205",
"]@	c #E26D07",
"^@	c #F68713",
"/@	c #F5870B",
"(@	c #F6860D",
"_@	c #F68510",
":@	c #F88512",
"<@	c #F88510",
"[@	c #F7860C",
"}@	c #F48D0E",
"|@	c #FA9D18",
"1@	c #FBA81D",
"2@	c #F5A818",
"3@	c #FAA81B",
"4@	c #FAA819",
"5@	c #FCA81A",
"6@	c #F8AE25",
"7@	c #F7BC32",
"8@	c #F1CF4D",
"9@	c #FDE78B",
"0@	c #DD984A",
"a@	c #E0750A",
"b@	c #FAA921",
"c@	c #F89415",
"d@	c #CE822C",
"e@	c #E07F1C",
"f@	c #F69616",
"g@	c #FBA817",
"h@	c #FDA71E",
"i@	c #DC7209",
"j@	c #E26B09",
"k@	c #F8860F",
"l@	c #F3880D",
"m@	c #F6870E",
"n@	c #F98510",
"o@	c #F3860D",
"p@	c #F0900B",
"q@	c #FDA51B",
"r@	c #FAA81A",
"s@	c #F8A918",
"t@	c #F9A917",
"u@	c #FDA81C",
"v@	c #F4A81E",
"w@	c #FDC43F",
"x@	c #FCCB48",
"y@	c #F7CA4E",
"z@	c #FFEC81",
"A@	c #D89847",
"B@	c #DE7408",
"C@	c #FDA61B",
"D@	c #F9A919",
"E@	c #F89317",
"F@	c #D87D25",
"G@	c #F59616",
"H@	c #F9850E",
"I@	c #F8840D",
"J@	c #F6850D",
"K@	c #F79113",
"L@	c #FCA41A",
"M@	c #FCA71B",
"N@	c #F9A618",
"O@	c #FBA818",
"P@	c #FAA71A",
"Q@	c #F5AC1F",
"R@	c #FEC53B",
"S@	c #FFCA45",
"T@	c #FFCA4B",
"U@	c #F7CB4E",
"V@	c #FFEC80",
"W@	c #D89947",
"X@	c #FCA61B",
"Y@	c #FDA61D",
"Z@	c #E36C0A",
"`@	c #F28408",
" #	c #F89214",
".#	c #F99C18",
"+#	c #FBA91A",
"@#	c #FCA71A",
"##	c #FCA51A",
"$#	c #FAB228",
"%#	c #F6BC32",
"&#	c #FCCB42",
"*#	c #FDC948",
"=#	c #FFC84A",
"-#	c #F7CA4D",
";#	c #FCA51B",
">#	c #F9A819",
",#	c #E1801C",
"'#	c #F49515",
")#	c #FCA61D",
"!#	c #E36D0A",
"~#	c #F9850F",
"{#	c #F08A0A",
"]#	c #FDA01C",
"^#	c #FCA71D",
"/#	c #FCA61A",
"(#	c #F9A71B",
"_#	c #F5AC24",
":#	c #FBBD37",
"<#	c #FECB44",
"[#	c #FCCB47",
"}#	c #FECA48",
"|#	c #FFC947",
"1#	c #F6CA4D",
"2#	c #FFEB80",
"3#	c #D79948",
"4#	c #DD7307",
"5#	c #E1801D",
"6#	c #F49516",
"7#	c #DD7209",
"8#	c #F98610",
"9#	c #F6860E",
"0#	c #F78F13",
"a#	c #FEA320",
"b#	c #FAA81E",
"c#	c #F6A91A",
"d#	c #FCA619",
"e#	c #F8A61A",
"f#	c #F6A91D",
"g#	c #FEC942",
"h#	c #FDCB48",
"i#	c #FECA4A",
"j#	c #FFCB46",
"k#	c #FFCC44",
"l#	c #F6CA4C",
"m#	c #DA7F21",
"n#	c #FB941F",
"o#	c #FBA717",
"p#	c #FEA41D",
"q#	c #DE7104",
"r#	c #E36D07",
"s#	c #F78811",
"t#	c #F5830F",
"u#	c #F4980F",
"v#	c #F7A515",
"w#	c #FCA41E",
"x#	c #F9A41C",
"y#	c #F5A917",
"z#	c #F9A91A",
"A#	c #FCA516",
"B#	c #F9B125",
"C#	c #FDC43A",
"D#	c #FDCC42",
"E#	c #FECC45",
"F#	c #FCC949",
"G#	c #FEC848",
"H#	c #FFC845",
"I#	c #FFC941",
"J#	c #F9CB4C",
"K#	c #F4EE8C",
"L#	c #D69B4B",
"M#	c #DF7508",
"N#	c #FAA521",
"O#	c #F7A81A",
"P#	c #F69415",
"Q#	c #D47F2B",
"R#	c #DA821B",
"S#	c #FD9819",
"T#	c #F9AA15",
"U#	c #E2830B",
"V#	c #E57710",
"W#	c #EF7B0E",
"X#	c #FA8617",
"Y#	c #F89C14",
"Z#	c #FBA41A",
"`#	c #F8A915",
" $	c #F8A517",
".$	c #F9AE21",
"+$	c #F7B82F",
"@$	c #FECB43",
"#$	c #FDCB44",
"$$	c #FECA44",
"%$	c #FECC47",
"&$	c #FACA48",
"*$	c #FBD04F",
"=$	c #F9D760",
"-$	c #F6C86E",
";$	c #E58F30",
">$	c #E3810D",
",$	c #F5A31D",
"'$	c #F8A71A",
")$	c #FB960F",
"!$	c #D68028",
"~$	c #C78530",
"{$	c #F79A1F",
"]$	c #FDA713",
"^$	c #F7A917",
"/$	c #F6A723",
"($	c #EE8F22",
"_$	c #DA6701",
":$	c #F98316",
"<$	c #FB971B",
"[$	c #FFA51D",
"}$	c #F9AA16",
"|$	c #F4AD20",
"1$	c #FAC135",
"2$	c #FDCA43",
"3$	c #FEC948",
"4$	c #FDCA48",
"5$	c #FFCC45",
"6$	c #FECA41",
"7$	c #F9CB44",
"8$	c #F4CE53",
"9$	c #F6D766",
"0$	c #FEE47F",
"a$	c #CE6A0B",
"b$	c #F4961A",
"c$	c #FCA420",
"d$	c #FBAB22",
"e$	c #FBA417",
"f$	c #C58441",
"g$	c #60872F",
"h$	c #B48D2B",
"i$	c #F28E18",
"j$	c #FDA415",
"k$	c #F7A91A",
"l$	c #F7A71E",
"m$	c #FB9C1F",
"n$	c #D96B01",
"o$	c #EB7D0D",
"p$	c #F28C12",
"q$	c #FCA31A",
"r$	c #F5A515",
"s$	c #F4A717",
"t$	c #F5AB20",
"u$	c #FDC63B",
"v$	c #FBCC43",
"w$	c #F9CC47",
"x$	c #FDCA4B",
"y$	c #FDCB4B",
"z$	c #FCC945",
"A$	c #FBCD46",
"B$	c #FAD04F",
"C$	c #FCDB69",
"D$	c #E3BD5C",
"E$	c #CF7625",
"F$	c #F7A422",
"G$	c #FBA314",
"H$	c #FCA91F",
"I$	c #FAA523",
"J$	c #E98C15",
"K$	c #AA8D2D",
"L$	c #6D9938",
"M$	c #7D9437",
"N$	c #A9872C",
"O$	c #EF9016",
"P$	c #FCA213",
"Q$	c #F8AA15",
"R$	c #FBA51D",
"S$	c #EF9419",
"T$	c #EA7E10",
"U$	c #E47A0C",
"V$	c #FBA51C",
"W$	c #F6A91B",
"X$	c #FAB02A",
"Y$	c #F9C039",
"Z$	c #FBCB49",
"`$	c #F9CC4A",
" %	c #F9CC48",
".%	c #FDCB4A",
"+%	c #FBCC4A",
"@%	c #F5CF54",
"#%	c #FDD966",
"$%	c #DDAB4B",
"%%	c #E39536",
"&%	c #F28D1D",
"*%	c #F6AA19",
"=%	c #F6AA1A",
"-%	c #FB9E13",
";%	c #EE9423",
">%	c #A3832A",
",%	c #769738",
"'%	c #789937",
")%	c #E38B2A",
"!%	c #FD9F19",
"~%	c #FBAA17",
"{%	c #FAA620",
"]%	c #F9A61B",
"^%	c #ED8819",
"/%	c #DF780A",
"(%	c #F39D1A",
"_%	c #FAB22C",
":%	c #FBBC3F",
"<%	c #FBCF4D",
"[%	c #FDCF52",
"}%	c #FCCE53",
"|%	c #FDD053",
"1%	c #FBD250",
"2%	c #FDCF4C",
"3%	c #F9D054",
"4%	c #F5D363",
"5%	c #FAD66E",
"6%	c #D3872A",
"7%	c #EC861D",
"8%	c #F7AA19",
"9%	c #FEA218",
"0%	c #F6A621",
"a%	c #FE9C13",
"b%	c #E48A28",
"c%	c #575B22",
"d%	c #E48D34",
"e%	c #F9A021",
"f%	c #F7A61D",
"g%	c #FFA517",
"h%	c #F7AA12",
"i%	c #F19C22",
"j%	c #D06601",
"k%	c #FCE27B",
"l%	c #FEEA8B",
"m%	c #FEEE86",
"n%	c #FFED85",
"o%	c #FFED86",
"p%	c #FFEE86",
"q%	c #FEEE85",
"r%	c #FDF186",
"s%	c #FEEE8A",
"t%	c #FBDE80",
"u%	c #C16801",
"v%	c #F69A1E",
"w%	c #FBA31B",
"x%	c #F7A91B",
"y%	c #FDA918",
"z%	c #FD9D21",
"A%	c #DD8C35",
"B%	c #779032",
"C%	c #D68A24",
"D%	c #F58A0A",
"E%	c #EE8D1A",
"F%	c #F4A51B",
"G%	c #F99A27",
"H%	c #D38529",
"I%	c #CD7F30",
"J%	c #D2812E",
"K%	c #D1802D",
"L%	c #D1812D",
"M%	c #D1812E",
"N%	c #D2812D",
"O%	c #D47F2C",
"P%	c #D38030",
"Q%	c #D6822B",
"R%	c #F59A23",
"S%	c #F9A61C",
"T%	c #F3AB1A",
"U%	c #FBA515",
"V%	c #F58C12",
"W%	c #F48D1A",
"X%	c #C08229",
"Y%	c #6C7F28",
"Z%	c #6A9C37",
"`%	c #958B33",
" &	c #B37A1A",
".&	c #AB7C24",
"+&	c #F1991F",
"@&	c #FAA112",
"#&	c #FBA310",
"$&	c #FDA019",
"%&	c #E5800D",
"&&	c #E78412",
"*&	c #ED7F13",
"=&	c #ED7F14",
"-&	c #ED8212",
";&	c #E68511",
">&	c #E68C15",
",&	c #FEA11A",
"'&	c #FEA416",
")&	c #F8A018",
"!&	c #ED9626",
"~&	c #B47920",
"{&	c #B2741C",
"]&	c #8F9138",
"^&	c #D5843F",
"/&	c #EF9B25",
"(&	c #FCA618",
"_&	c #F5AA19",
":&	c #FEA319",
"<&	c #FEA817",
"[&	c #FAA91A",
"}&	c #FAAA1B",
"|&	c #FEA718",
"1&	c #FCAC1E",
"2&	c #F7A719",
"3&	c #FCA91A",
"4&	c #FCA220",
"5&	c #EF9726",
"6&	c #D48C43",
"7&	c #689333",
"8&	c #AF8B34",
"9&	c #EF8923",
"0&	c #E9921D",
"a&	c #F9A320",
"b&	c #F4AB15",
"c&	c #FCA819",
"d&	c #FBA718",
"e&	c #F7AB18",
"f&	c #F6AC1F",
"g&	c #F6A31D",
"h&	c #F08F15",
"i&	c #E48926",
"j&	c #AE8532",
"k&	c #659735",
"l&	c #7E943A",
"m&	c #98842D",
"n&	c #988128",
"o&	c #E68F30",
"p&	c #F49111",
"q&	c #FA8E12",
"r&	c #FA8E11",
"s&	c #FA8F12",
"t&	c #FA9013",
"u&	c #FB9015",
"v&	c #F78C16",
"w&	c #E98E2B",
"x&	c #9C8126",
"y&	c #919435",
"z&	c #7B9E3D",
"A&	c #679D37",
"B&	c #AD8846",
"C&	c #C17D24",
"D&	c #C18E30",
"E&	c #BE872D",
"F&	c #BB7828",
"G&	c #C0842D",
"H&	c #C27426",
"I&	c #B19148",
"                                                                                                                                ",
"    .                                                       +   +                                                               ",
"  . @ .                                     +                 +                                                   +             ",
"    .                               +     #                                                                       #             ",
"                        +             +                                   +       + +                           +               ",
"                      +                     +                             + +   + + #                   $       #               ",
"                                    +     #                                 +   + #                       $           $         ",
"                                      #                                     #   +                         $     $   $           ",
"                                      +                                             +       + +               $                 ",
"  +                                                                                 # +   + + +               $                 ",
"+     +                                                                               +   + #                             +     ",
"+     #                                                     +                         #   #                               #     ",
"#   +       $ $                     .                     +         +                                                       +   ",
"#   #     $                       . @ .                           +                                                         #   ",
"                                    .                       +                                           +                       ",
"      $ $       $ $                                 +     +                                               +                     ",
"    $         $                                   + % & * = - ; > ; , ' ) !       + +                                           ",
"                                                ~ { ] ^ / ( ( _ : < [ } | 1 2 3     +                                           ",
"                                              4 5 6 7 8 9 0 a b c d e f g h i j k   l +     +                         .         ",
"                                              m n o p q r s s t u f v w x y z A B +   #   + +                       . @ .       ",
"                                        C D E F G H I J K L L M N N O P Q R S T U V W X + #                           .         ",
"                        +     +     Y Z `  ...+.@.#.$.%.&.*.*.=.=.=.-.;.>.,.'.).!.~.{.].^./.                                    ",
"                          +     +   (._.:.<.[.}.|.1.2.3.4.5.6.7.8.9.0.a.b.c.d.e.f.g.h.i.j.k.                                    ",
"        +   +               +   +   l.m.n.o.p.q.r.s.t.u.v.w.x.y.z.A.B.C.D.E.F.G.H.I.J.K.L.M.                                    ",
"          +                       N.O.P.Q.R.S.T.U.V.W.X.Y.Z.`. +.+++@+#+$+%+&+*+=+-+;+>+,+'+)+                                  ",
"                                !+~+{+]+^+/+(+_+:+<+[+}+|+1+2+3+4+5+6+7+8+9+0+a+b+c+d+e+f+g+h+i+                                ",
"                                j+k+l+m+n+o+p+q+r+s+t+u+8.y.v+w+x+y+z+A+B+C+D+E+F+G+H+:.}.I+J+K+                      +         ",
"                                L+M+N+O+P+Q+R+S+T+U+u+V+V+W+X+Y+Z+`+ @.@+@@@#@$@%@&@*@=@-@;@>@,@                        +       ",
"    + +                         '@)@!@~@{@]@^@/@(@_@:@<@[@Z.}@|@1@2@3@4@o.5@6@7@8@9@0@a@b@+.c@d@      $                         ",
"        + +                     e@f@g@h@i@j@k@l@m@V+n@<@o@p@q@r@s@t@r@5@u@v@w@x@y@z@A@B@C@D@E@F@        $     $                 ",
"+ + +     +                     e@G@g@h@i@j@k@(@V+H@I@J@K@L@M@N@z+O@]+P@Q@R@S@T@U@V@W@B@X@D@E@F@            $                   ",
"    + +   l +     +   $ $       e@G@g@Y@i@Z@k@W+H@U+`@ #.#+#z+z+5@@###$#%#&#*#=#-#V@W@B@;#>#E@F@                  $             ",
"      # +   #   + + $           ,#'#g@)#i@!#}+~#X./@{#]#^#s@z+0 /#(#_#:#<#[#}#|#1#2#3#4#;#>#E@F@        $       $               ",
"      # +     + #               5#6#g@Y@7#!#}+8#9#0#a#b#c#t@O@d#e#f#g#h#i#i#j#k#l#2#3#4###>#E@F@          $                     ",
"            + #       + +       m#n#o#p#q#r#s#t#u#v#w#x#y#z#A#d#B#C#D#E#F#G#H#I#J#K#L#M#N#O#P#Q#          $                     ",
"          $   $         + +     R#S#T#O+U#V#W#X#Y#t@f+Z#`#r@ $.$+$@$#$k#$$%$&$*$=$-$;$>$,$'$)$!$                                ",
"  + +       $     +     # +     ~${$]$^$/$($_$:$<$f+[$N@}$P@|$1$2$3$4$5$6$7$8$9$0$a$b$c$d$e${$f$                    +           ",
"    + +             +   # +   + g$h$i$j$k$l$m$n$o$p$q$r$s$t$u$v$w$x$y$z$A$B$C$D$E$F$G$H$I$J$K$L$                      +         ",
"    # +     +       # +   #   + # M$N$O$P$Q$R$S$T$U$V$W$X$Y$%$Z$`$ %.%+%@%#%$%%%&%*%=%-%;%>%,%  + + +                         + ",
"+   # +   + +       # +     + #     '%)%!%~%{%]%^%/%(%_%:%<%[%}%|%1%2%3%4%5%6%7%8%9%0%a%b%c%  + + #                             ",
"# +   #   + #               #       (.d%e%f%g%h%9+i%j%k%l%m%n%o%p%q%r%s%t%u%v%w%x%y%{%z%A%k.  + #                               ",
"# +     + #     $   $               Y B%C%D%E%c o#F%G%H%I%J%K%L%M%N%O%P%Q%R%S%T%U%V%W%X%Y%Z%                          +         ",
"        #         $                     `% &.&+&@&#&$&%&&&*&*&=&=&=&-&;&>&,&'&)&!&~&{&]&                                +       ",
"                                              ^&/&(&_&:&<&># @[&}&}&|&1&2&3&4&5&6&                                              ",
"                                              7&8&9&0&a&b&c&d&d&b b e&f&g&h&i&j&k&                        +   +                 ",
"                              +   +             l&m&n&o&p&q&r&s&t&t&u&v&w&x&y&z&                            +                   ",
"                                +                   A&B&C&D&E&F&D&D&G&H&I&A&                                                    ",
"      +                                                 #   +                                 +                                 ",
"      #                                                         +       + +                 +                                   ",
"        +             .                                         # +   + + +               +                                     ",
"        #           . @ .                                         +   + #                               +       + +             ",
"                      .                                           #   #                                 + +   + + +             ",
"                            .           +           +       + +                             +     .       +   + +               ",
"          $       $ $     . @ .           +         # +   + + #                           +     . @ .     +   +                 ",
"            $   $           .                         #   + #                           +         .                             ",
"              $ $   $ $                 +             #   +                                                                     ",
"                  $                       +                   + +                                                               ",
"  + +                                                   + +     +                                                 + +           ",
"+ +                                       +               + +   l +     +                                           + +       + ",
"+ +                             +           +               # +   #   + +                                       +     + #     + ",
"#                   +           #                           # +     + #                       +               +   #   #     # # ",
"    + +               +           +                               + #                       +                       #     #     ",
"# +                               #                                                       +                             +     # ",
"                                                                                                                                "};
